<svg width="55" height="40" viewBox="0 0 55 40" fill="none" xmlns="http://www.w3.org/2000/svg">
<path d="M53.8192 13.9256C54.9424 15.0686 54.9424 16.9218 53.8192 18.0648L33.4122 38.8312C32.289 39.9741 30.4679 39.9741 29.3448 38.8312L16.5023 25.7629C15.3791 24.62 15.3791 22.7667 16.5023 21.6237L36.9096 0.857268C38.0328 -0.285756 39.8539 -0.285756 40.977 0.857268L53.8192 13.9256Z" fill="#7A67FF"/>
<path d="M38.1593 13.9256C39.2825 15.0686 39.2825 16.9218 38.1593 18.0648L17.7522 38.8312C16.629 39.9741 14.8079 39.9741 13.6847 38.8312L0.842436 25.7629C-0.280812 24.62 -0.280812 22.7667 0.842436 21.6237L21.2496 0.857268C22.3728 -0.285756 24.194 -0.285756 25.3171 0.857268L38.1593 13.9256Z" fill="#C082FF"/>
</svg>
