<svg width="32" height="32" viewBox="0 0 32 32" fill="none" xmlns="http://www.w3.org/2000/svg">
<g clip-path="url(#clip0_207_812)">
<path d="M11.5 19C12.3284 19 13 18.3284 13 17.5C13 16.6716 12.3284 16 11.5 16C10.6716 16 10 16.6716 10 17.5C10 18.3284 10.6716 19 11.5 19Z" fill="#A1A1AA"/>
<path d="M20.5 19C21.3284 19 22 18.3284 22 17.5C22 16.6716 21.3284 16 20.5 16C19.6716 16 19 16.6716 19 17.5C19 18.3284 19.6716 19 20.5 19Z" fill="#A1A1AA"/>
<path d="M19.18 9.21123L19.805 6.75748C19.8674 6.5106 20.0206 6.29631 20.2339 6.15731C20.4473 6.01831 20.7052 5.96481 20.9562 6.00748L25.4613 6.74998C25.6558 6.78157 25.8369 6.86941 25.9822 7.00269C26.1275 7.13596 26.2305 7.30883 26.2787 7.49998L29.97 22.0462C30.0264 22.2749 30.0003 22.5161 29.8962 22.7274C29.7922 22.9387 29.6169 23.1065 29.4013 23.2012L21.0263 26.9137C20.8992 26.9714 20.7616 27.0024 20.622 27.0047C20.4825 27.007 20.344 26.9806 20.215 26.9272C20.0861 26.8737 19.9695 26.7944 19.8726 26.694C19.7756 26.5936 19.7002 26.4744 19.6513 26.3437L18.375 22.8825" stroke="#A1A1AA" stroke-width="2" stroke-linecap="round" stroke-linejoin="round"/>
<path d="M12.82 9.21123L12.195 6.75748C12.1326 6.5106 11.9794 6.29631 11.7661 6.15731C11.5527 6.01831 11.2948 5.96481 11.0437 6.00748L6.53875 6.74998C6.34416 6.78157 6.16307 6.86941 6.0178 7.00269C5.87254 7.13596 5.76945 7.30883 5.72125 7.49998L2.03 22.0437C1.97361 22.2724 1.99974 22.5136 2.10378 22.7249C2.20783 22.9362 2.38311 23.104 2.59875 23.1987L10.9738 26.9112C11.1008 26.9689 11.2384 26.9999 11.378 27.0022C11.5175 27.0045 11.656 26.9781 11.785 26.9247C11.9139 26.8712 12.0305 26.7919 12.1274 26.6915C12.2244 26.5911 12.2998 26.4719 12.3488 26.3412L13.625 22.8825" stroke="#A1A1AA" stroke-width="2" stroke-linecap="round" stroke-linejoin="round"/>
<path d="M10 9.78878C11.955 9.25528 13.9735 8.98993 16 9.00003C18.0265 8.98993 20.045 9.25528 22 9.78878" stroke="#A1A1AA" stroke-width="2" stroke-linecap="round" stroke-linejoin="round"/>
<path d="M22 22.2113C20.045 22.7448 18.0265 23.0102 16 23.0001C13.9735 23.0102 11.955 22.7448 10 22.2113" stroke="#A1A1AA" stroke-width="2" stroke-linecap="round" stroke-linejoin="round"/>
</g>
<defs>
<clipPath id="clip0_207_812">
<rect width="32" height="32" fill="white"/>
</clipPath>
</defs>
</svg>
